ffmpeg started on 2025-06-30 at 14:34:50
Report written to "D:\Convert\FFMetrics\reports\ssim_report-6.txt"
Log level: 32
Command line:
ffmpeg -hide_banner -nostdin -i "G:\\\xc0\xed\xe8\xec\xe5\\\xce\xed\xe3\xee\xe8\xed\xe3\xe8\\!_37_\xc7\xe8\xec\xe0_2025\\JamClub\\\xc3\xee\xf1\xef\xee\xe4\xe8\xed \xe8 \xef\xb8\xf1\\JamClub_Tono_to_Inu_Woof_Woof!_S01E03_1080p_HEVC.mkv" -i "G:\\\xc0\xed\xe8\xec\xe5\\\xce\xed\xe3\xee\xe8\xed\xe3\xe8\\!_37_\xc7\xe8\xec\xe0_2025\\JamClub\\\xc3\xee\xf1\xef\xee\xe4\xe8\xed \xe8 \xef\xb8\xf1\\JamClub_Tono_to_Inu_Woof_Woof!_S01E03_1080p.mp4" -lavfi "[0:v]settb=AVTB,setpts=PTS-STARTPTS,format=pix_fmts=yuv420p10,fps=24000/1001,scale=1920:1080:flags=bicubic[main];[1:v]settb=AVTB,setpts=PTS-STARTPTS,format=pix_fmts=yuv420p,fps=24000/1001,scale=1920:1080:flags=bicubic[ref];[main][ref]ssim=eof_action=endall:stats_file='D\\:/Convert/FFMetrics/logs/ssim_logfile-6.txt'" -f null -
Input #0, matroska,webm, from 'G:\Аниме\Онгоинги\!_37_Зима_2025\JamClub\Господин и пёс\JamClub_Tono_to_Inu_Woof_Woof!_S01E03_1080p_HEVC.mkv':
  Metadata:
    COMPATIBLE_BRANDS: isomiso2avc1mp41
    MAJOR_BRAND     : isom
    MINOR_VERSION   : 512
    ENCODER         : Lavf61.7.100
  Duration: 00:02:58.20, start: -0.021000, bitrate: 1883 kb/s
  Stream #0:0: Video: hevc (Main 10), yuv420p10le(tv, bt709, progressive), 1920x1080 [SAR 1:1 DAR 16:9], 23.98 fps, 23.98 tbr, 1k tbn (default)
      Metadata:
        HANDLER_NAME    : VideoHandler
        VENDOR_ID       : [0][0][0][0]
        ENCODER         : Lavc61.19.100 libx265
        BPS             : 1696662
        DURATION        : 00:02:57.051708333
        NUMBER_OF_FRAMES: 4245
        NUMBER_OF_BYTES : 37549463
        _STATISTICS_WRITING_APP: mkvpropedit v66.0.0 ('Josie') 64-bit
        _STATISTICS_WRITING_DATE_UTC: 2025-06-28 15:42:55
        _STATISTICS_TAGS: BPS DURATION NUMBER_OF_FRAMES NUMBER_OF_BYTES
  Stream #0:1(eng): Audio: aac (LC), 48000 Hz, stereo, fltp (default)
      Metadata:
        HANDLER_NAME    : SoundHandler
        VENDOR_ID       : [0][0][0][0]
        ENCODER         : Lavc61.19.100 aac
        BPS             : 193977
        DURATION        : 00:02:58.179000000
        NUMBER_OF_FRAMES: 8353
        NUMBER_OF_BYTES : 4320331
        _STATISTICS_WRITING_APP: mkvpropedit v66.0.0 ('Josie') 64-bit
        _STATISTICS_WRITING_DATE_UTC: 2025-06-28 15:42:55
        _STATISTICS_TAGS: BPS DURATION NUMBER_OF_FRAMES NUMBER_OF_BYTES
Input #1, mov,mp4,m4a,3gp,3g2,mj2, from 'G:\Аниме\Онгоинги\!_37_Зима_2025\JamClub\Господин и пёс\JamClub_Tono_to_Inu_Woof_Woof!_S01E03_1080p.mp4':
  Metadata:
    major_brand     : isom
    minor_version   : 512
    compatible_brands: isomiso2avc1mp41
    encoder         : Lavf60.16.100
  Duration: 00:02:58.18, start: 0.000000, bitrate: 5264 kb/s
  Stream #1:0[0x1](und): Video: h264 (High) (avc1 / 0x31637661), yuv420p(tv, bt709, progressive), 1920x1080 [SAR 1:1 DAR 16:9], 5098 kb/s, 23.98 fps, 23.98 tbr, 90k tbn (default)
      Metadata:
        handler_name    : VideoHandler
        vendor_id       : [0][0][0][0]
  Stream #1:1[0x2](eng): Audio: aac (LC) (mp4a / 0x6134706D), 48000 Hz, stereo, fltp, 191 kb/s (default)
      Metadata:
        handler_name    : SoundHandler
        vendor_id       : [0][0][0][0]
Stream mapping:
  Stream #0:0 (hevc) -> settb:default
  Stream #1:0 (h264) -> settb:default
  ssim:default -> Stream #0:0 (wrapped_avframe)
  Stream #0:1 -> #0:1 (aac (native) -> pcm_s16le (native))
Output #0, null, to 'pipe:':
  Metadata:
    COMPATIBLE_BRANDS: isomiso2avc1mp41
    MAJOR_BRAND     : isom
    MINOR_VERSION   : 512
    encoder         : Lavf61.7.100
  Stream #0:0: Video: wrapped_avframe, yuv420p10le(tv, bt709, progressive), 1920x1080 [SAR 1:1 DAR 16:9], q=2-31, 200 kb/s, 23.98 fps, 23.98 tbn
      Metadata:
        encoder         : Lavc61.19.100 wrapped_avframe
  Stream #0:1(eng): Audio: pcm_s16le, 48000 Hz, stereo, s16, 1536 kb/s (default)
      Metadata:
        HANDLER_NAME    : SoundHandler
        VENDOR_ID       : [0][0][0][0]
        _STATISTICS_TAGS: BPS DURATION NUMBER_OF_FRAMES NUMBER_OF_BYTES
        BPS             : 193977
        DURATION        : 00:02:58.179000000
        NUMBER_OF_FRAMES: 8353
        NUMBER_OF_BYTES : 4320331
        _STATISTICS_WRITING_APP: mkvpropedit v66.0.0 ('Josie') 64-bit
        _STATISTICS_WRITING_DATE_UTC: 2025-06-28 15:42:55
        encoder         : Lavc61.19.100 pcm_s16le
frame=  114 fps=0.0 q=-0.0 size=N/A time=00:00:04.75 bitrate=N/A speed=9.27x    frame=  277 fps=267 q=-0.0 size=N/A time=00:00:11.55 bitrate=N/A speed=11.1x    frame=  467 fps=301 q=-0.0 size=N/A time=00:00:19.47 bitrate=N/A speed=12.6x    frame=  709 fps=345 q=-0.0 size=N/A time=00:00:29.57 bitrate=N/A speed=14.4x    frame=  923 fps=358 q=-0.0 size=N/A time=00:00:38.49 bitrate=N/A speed=14.9x    frame= 1153 fps=373 q=-0.0 size=N/A time=00:00:48.08 bitrate=N/A speed=15.6x    frame= 1356 fps=375 q=-0.0 size=N/A time=00:00:56.55 bitrate=N/A speed=15.7x    frame= 1574 fps=382 q=-0.0 size=N/A time=00:01:05.64 bitrate=N/A speed=15.9x    frame= 1818 fps=391 q=-0.0 size=N/A time=00:01:15.82 bitrate=N/A speed=16.3x    frame= 2037 fps=395 q=-0.0 size=N/A time=00:01:24.95 bitrate=N/A speed=16.5x    frame= 2265 fps=399 q=-0.0 size=N/A time=00:01:34.46 bitrate=N/A speed=16.6x    frame= 2494 fps=403 q=-0.0 size=N/A time=00:01:44.02 bitrate=N/A speed=16.8x    frame= 2715 fps=405 q=-0.0 size=N/A time=00:01:53.23 bitrate=N/A speed=16.9x    frame= 2926 fps=405 q=-0.0 size=N/A time=00:02:02.03 bitrate=N/A speed=16.9x    frame= 3071 fps=397 q=-0.0 size=N/A time=00:02:08.08 bitrate=N/A speed=16.6x    frame= 3282 fps=397 q=-0.0 size=N/A time=00:02:16.88 bitrate=N/A speed=16.6x    frame= 3494 fps=398 q=-0.0 size=N/A time=00:02:25.72 bitrate=N/A speed=16.6x    frame= 3672 fps=396 q=-0.0 size=N/A time=00:02:33.15 bitrate=N/A speed=16.5x    frame= 3876 fps=395 q=-0.0 size=N/A time=00:02:41.66 bitrate=N/A speed=16.5x    frame= 4083 fps=396 q=-0.0 size=N/A time=00:02:50.29 bitrate=N/A speed=16.5x    [Parsed_ssim_10 @ 000001bf975d54c0] SSIM Y:0.993701 (22.007062) U:0.993021 (21.562244) V:0.993664 (21.982146) All:0.993581 (21.925600)
[out#0/null @ 000001bf96eeeec0] video:1824KiB audio:33412KiB subtitle:0KiB other streams:0KiB global headers:0KiB muxing overhead: unknown
frame= 4245 fps=398 q=-0.0 Lsize=N/A time=00:02:57.05 bitrate=N/A speed=16.6x    
